# Blender 4.2.0
# www.blender.org
mtllib grassMesh.mtl
o Plane
v -1.000000 1.548160 0.000000
v 1.000000 1.548160 0.000000
v -0.800000 1.520942 1.823083
v 0.800000 1.520942 1.823083
v -0.628659 2.092520 3.739161
v 0.651341 2.092520 3.739161
v -0.386501 3.371766 5.545529
v 0.431864 3.371766 5.545529
v 0.068045 5.154544 7.210907
v 1.415464 1.411058 0.000000
v 1.913984 -0.493783 -0.000000
v 1.450499 1.212278 1.823083
v 1.938157 -0.311595 1.823083
v 2.047104 1.223299 3.739161
v 2.437230 0.004200 3.739161
v 3.339291 1.382559 5.545529
v 3.588717 0.603130 5.545529
v 5.175786 1.493006 7.210907
v -1.685037 -0.513470 -0.000000
v -1.258184 1.455964 0.000000
v -1.544873 -0.321267 1.823083
v -1.266215 1.254280 1.823083
v -2.077875 -0.052998 3.739161
v -1.854948 1.207440 3.739161
v -3.295395 0.408255 5.545529
v -3.152868 1.214113 5.545529
v -4.971764 1.166345 7.210907
v 1.352664 -0.969109 -0.000000
v -0.637246 -0.855577 -0.000000
v 1.156404 -0.921965 1.823083
v -0.435525 -0.761458 1.823083
v 0.928589 -1.473471 3.739161
v -0.344955 -1.345065 3.739161
v 0.559322 -2.721971 5.545529
v -0.254915 -2.639875 5.545529
v -0.071774 -4.450159 7.210907
v 0.881893 -0.224495 -0.000000
v -0.541223 -0.081008 -0.000000
v 0.741534 -0.190779 1.303806
v -0.396959 -0.075990 1.303806
v 0.578609 -0.585197 2.674119
v -0.332186 -0.493366 2.674119
v 0.513517 -0.636468 4.231975
v -0.172099 -0.812291 4.093888
v 0.135372 -2.027362 5.520834
v -0.549408 0.102544 -0.000000
v -0.039543 1.438914 -0.000000
v -0.480235 0.229242 1.303806
v -0.072343 1.298338 1.303806
v -0.818475 0.489443 2.674119
v -0.492161 1.344721 2.674119
v -1.611513 0.977372 3.965972
v -1.402885 1.524191 3.965972
v -2.686861 1.735581 5.156994
v 0.034672 0.991529 -0.000000
v 1.117325 0.056805 -0.000000
v 0.130216 0.883323 1.303806
v 0.996339 0.135543 1.303806
v 0.490101 1.112655 2.674119
v 1.183000 0.514431 2.674119
v 1.255090 1.780377 3.718503
v 1.698092 1.397904 3.718503
v 2.334351 2.533005 4.909525
v -0.199112 0.795559 -0.000000
v 0.588207 -0.139165 -0.000000
v -0.221701 0.687353 1.303806
v 0.467221 -0.060426 1.303806
v -0.039017 0.916685 2.674119
v 0.653882 0.318461 2.674119
v 0.257730 0.800307 4.216194
v 0.700732 0.417834 4.216194
v 0.373140 0.771040 5.813056
v -0.318707 -0.714481 -0.000000
v -1.333119 0.293892 0.000000
v -0.406425 -0.599839 1.303806
v -1.217955 0.206860 1.303806
v -0.781512 -0.803359 2.674119
v -1.430736 -0.158000 2.674119
v -1.549314 -1.330107 3.965972
v -1.964394 -0.917499 3.965972
v -2.678716 -2.005169 5.156993
v 1.607480 0.437999 0.000000
v 0.698609 -0.476625 -0.000000
v 1.675881 0.361502 1.303806
v 0.796131 -0.370196 1.303806
v 1.843060 -0.031133 2.674119
v 1.139259 -0.616492 2.674119
v 2.294924 -0.845260 3.965972
v 1.844951 -1.219508 3.965972
v 2.860280 -2.033380 5.156993
vn -0.0000 -0.9999 -0.0149
vn -0.0000 -0.9583 0.2859
vn -0.0000 -0.8161 0.5779
vn -0.0000 -0.6826 0.7308
vn -0.9609 -0.2764 0.0143
vn -0.9127 -0.2921 0.2859
vn -0.7773 -0.2487 0.5779
vn -0.6502 -0.2081 0.7308
vn 0.9801 -0.1951 -0.0360
vn 0.9436 -0.1669 0.2859
vn 0.8036 -0.1421 0.5779
vn 0.6722 -0.1189 0.7308
vn 0.0762 0.9963 -0.0387
vn 0.0961 0.9534 0.2859
vn 0.0819 0.8120 0.5779
vn 0.0685 0.6792 0.7308
vn 0.1003 0.9948 -0.0149
vn -0.0629 0.9901 0.1251
vn -0.3088 0.6903 0.6543
vn 0.9342 -0.3564 -0.0149
vn 0.8953 -0.3416 0.2859
vn 0.7625 -0.2909 0.5779
vn 0.6378 -0.2433 0.7308
vn -0.6534 -0.7568 -0.0149
vn -0.6262 -0.7253 0.2859
vn -0.4708 -0.5453 0.6935
vn -0.4461 -0.5167 0.7308
vn -0.7508 -0.6587 -0.0488
vn -0.6764 -0.6944 0.2453
vn -0.6520 -0.7551 0.0685
vn -0.6531 -0.7565 0.0333
vn 0.7049 0.7091 -0.0149
vn 0.6756 0.6796 0.2859
vn 0.5753 0.5788 0.5779
vn 0.4813 0.4841 0.7308
vn -0.6768 0.7353 0.0346
vn -0.6128 0.7368 0.2859
vn -0.5218 0.6274 0.5779
vn -0.4365 0.5248 0.7308
vt 0.194889 0.002725
vt 0.282391 0.002725
vt 0.273641 0.216349
vt 0.203640 0.216349
vt 0.267137 0.450621
vt 0.211136 0.450621
vt 0.257534 0.709961
vt 0.221730 0.709961
vt 0.241617 0.995799
vt 0.282391 0.002725
vt 0.368536 0.002725
vt 0.361193 0.216506
vt 0.291192 0.216334
vt 0.354609 0.450762
vt 0.298609 0.450624
vt 0.344919 0.710078
vt 0.309115 0.709990
vt 0.328904 0.995876
vt 0.019523 0.002725
vt 0.107688 0.002725
vt 0.099041 0.216380
vt 0.029040 0.216623
vt 0.092651 0.450674
vt 0.036650 0.450869
vt 0.083175 0.710047
vt 0.047371 0.710171
vt 0.067396 0.995940
vt 0.107688 0.002725
vt 0.194889 0.002725
vt 0.186379 0.216701
vt 0.116378 0.216367
vt 0.179719 0.450942
vt 0.123718 0.450674
vt 0.169944 0.710235
vt 0.134140 0.710064
vt 0.153836 0.995997
vt 0.378953 0.002725
vt 0.471115 0.002725
vt 0.461899 0.155502
vt 0.388169 0.155502
vt 0.455049 0.323045
vt 0.396065 0.323045
vt 0.442724 0.493095
vt 0.396788 0.505824
vt 0.443819 0.715610
vt 0.471115 0.002725
vt 0.563278 0.002725
vt 0.554061 0.155502
vt 0.480332 0.155502
vt 0.547211 0.323045
vt 0.488227 0.323045
vt 0.537097 0.508516
vt 0.499386 0.508516
vt 0.520332 0.712937
vt 0.657793 0.005161
vt 0.775735 0.005161
vt 0.763941 0.157937
vt 0.669587 0.157937
vt 0.755175 0.325481
vt 0.679691 0.325481
vt 0.739716 0.495326
vt 0.691457 0.495326
vt 0.718262 0.699748
vt 0.893678 0.002685
vt 0.994451 0.002685
vt 0.983059 0.155523
vt 0.899219 0.155790
vt 0.970774 0.322619
vt 0.895315 0.319882
vt 0.965092 0.503574
vt 0.916847 0.501824
vt 0.922263 0.689281
vt 0.775735 0.002488
vt 0.893678 0.002488
vt 0.881884 0.155265
vt 0.787530 0.155265
vt 0.873117 0.322808
vt 0.797634 0.322808
vt 0.860174 0.508279
vt 0.811914 0.508279
vt 0.838719 0.712701
vt 0.563278 0.002725
vt 0.646360 0.002725
vt 0.637066 0.155486
vt 0.563337 0.155957
vt 0.630540 0.323072
vt 0.571556 0.323449
vt 0.620784 0.508606
vt 0.583073 0.508847
vt 0.604414 0.713134
s 0
f 1/1/1 2/2/1 4/3/1 3/4/1
f 3/4/2 4/3/2 6/5/2 5/6/2
f 5/6/3 6/5/3 8/7/3 7/8/3
f 7/8/4 8/7/4 9/9/4
f 10/10/5 11/11/5 13/12/5 12/13/5
f 12/13/6 13/12/6 15/14/6 14/15/6
f 14/15/7 15/14/7 17/16/7 16/17/7
f 16/17/8 17/16/8 18/18/8
f 19/19/9 20/20/9 22/21/9 21/22/9
f 21/22/10 22/21/10 24/23/10 23/24/10
f 23/24/11 24/23/11 26/25/11 25/26/11
f 25/26/12 26/25/12 27/27/12
f 28/28/13 29/29/13 31/30/13 30/31/13
f 30/31/14 31/30/14 33/32/14 32/33/14
f 32/33/15 33/32/15 35/34/15 34/35/15
f 34/35/16 35/34/16 36/36/16
f 37/37/17 38/38/17 40/39/17 39/40/17
f 39/40/14 40/39/14 42/41/14 41/42/14
f 41/42/18 42/41/18 44/43/18 43/44/18
f 43/44/19 44/43/19 45/45/19
f 46/46/20 47/47/20 49/48/20 48/49/20
f 48/49/21 49/48/21 51/50/21 50/51/21
f 50/51/22 51/50/22 53/52/22 52/53/22
f 52/53/23 53/52/23 54/54/23
f 55/55/24 56/56/24 58/57/24 57/58/24
f 57/58/25 58/57/25 60/59/25 59/60/25
f 59/60/26 60/59/26 62/61/26 61/62/26
f 61/62/27 62/61/27 63/63/27
f 64/64/28 65/65/28 67/66/28 66/67/28
f 66/67/29 67/66/29 69/68/29 68/69/29
f 68/69/30 69/68/30 71/70/30 70/71/30
f 70/71/31 71/70/31 72/72/31
f 73/73/32 74/74/32 76/75/32 75/76/32
f 75/76/33 76/75/33 78/77/33 77/78/33
f 77/78/34 78/77/34 80/79/34 79/80/34
f 79/80/35 80/79/35 81/81/35
f 82/82/36 83/83/36 85/84/36 84/85/36
f 84/85/37 85/84/37 87/86/37 86/87/37
f 86/87/38 87/86/38 89/88/38 88/89/38
f 88/89/39 89/88/39 90/90/39
